<svg width="100%" height="100%" viewBox="0 0 24 24" version="1.1" xmlns="http://www.w3.org/2000/svg" xmlns:xlink="http://www.w3.org/1999/xlink" xml:space="preserve" xmlns:serif="http://www.serif.com/" style="fill-rule:evenodd;clip-rule:evenodd;stroke-linejoin:round;stroke-miterlimit:2;"><g id="Icon"><path d="M22.75,6c0,-1.26 -0.5,-2.468 -1.391,-3.359c-0.891,-0.891 -2.099,-1.391 -3.359,-1.391l-12,0c-1.26,-0 -2.468,0.5 -3.359,1.391c-0.891,0.891 -1.391,2.099 -1.391,3.359l-0,12c-0,1.26 0.5,2.468 1.391,3.359c0.891,0.891 2.099,1.391 3.359,1.391l12,0c1.26,0 2.468,-0.5 3.359,-1.391c0.891,-0.891 1.391,-2.099 1.391,-3.359l-0,-12Zm-10.262,2.163l-2.4,7.2c-0.13,0.393 0.082,0.818 0.475,0.949c0.393,0.13 0.818,-0.082 0.949,-0.475l2.4,-7.2c0.13,-0.393 -0.082,-0.818 -0.475,-0.949c-0.393,-0.13 -0.818,0.082 -0.949,0.475Zm2.582,1.967l1.869,1.87c0,-0 -1.869,1.87 -1.869,1.87c-0.293,0.292 -0.293,0.768 -0,1.06c0.292,0.293 0.768,0.293 1.06,0l2.4,-2.4c0.293,-0.293 0.293,-0.767 0,-1.06l-2.4,-2.4c-0.292,-0.293 -0.768,-0.293 -1.06,-0c-0.293,0.292 -0.293,0.768 -0,1.06Zm-7.2,-1.06l-2.4,2.4c-0.293,0.293 -0.293,0.767 -0,1.06l2.4,2.4c0.292,0.293 0.768,0.293 1.06,0c0.293,-0.292 0.293,-0.768 0,-1.06l-1.869,-1.87c-0,0 1.869,-1.87 1.869,-1.87c0.293,-0.292 0.293,-0.768 0,-1.06c-0.292,-0.293 -0.768,-0.293 -1.06,-0Z" id="id_101"></path></g></svg>